<svg width="41" height="40" viewBox="0 0 41 40" fill="none" xmlns="http://www.w3.org/2000/svg">
<path d="M30.2188 33.2188C31.0312 32.4062 31.9688 32 33.0312 32C34.0938 32 35 32.4062 35.75 33.2188C36.5625 34.0312 36.9688 34.9688 36.9688 36.0312C36.9688 37.0938 36.5625 38.0312 35.75 38.8438C35 39.5938 34.0938 39.9688 33.0312 39.9688C31.9688 39.9688 31.0312 39.5938 30.2188 38.8438C29.4062 38.0312 29 37.0938 29 36.0312C29 34.9688 29.4062 34.0312 30.2188 33.2188ZM0.96875 0.03125H7.53125L9.40625 3.96875H39.0312C39.5938 3.96875 40.0625 4.1875 40.4375 4.625C40.8125 5 41 5.46875 41 6.03125C41 6.09375 40.9062 6.40625 40.7188 6.96875L33.5938 19.9062C32.8438 21.2812 31.6875 21.9688 30.125 21.9688H15.2188L13.4375 25.25L13.3438 25.5312C13.3438 25.8438 13.5 26 13.8125 26H36.9688V30.0312H12.9688C11.9062 30.0312 10.9688 29.625 10.1562 28.8125C9.40625 28 9.03125 27.0625 9.03125 26C9.03125 25.375 9.1875 24.75 9.5 24.125L12.2188 19.1562L5 3.96875H0.96875V0.03125ZM10.1562 33.2188C10.9688 32.4062 11.9062 32 12.9688 32C14.0312 32 14.9688 32.4062 15.7812 33.2188C16.5938 34.0312 17 34.9688 17 36.0312C17 37.0938 16.5938 38.0312 15.7812 38.8438C14.9688 39.5938 14.0312 39.9688 12.9688 39.9688C11.9062 39.9688 10.9688 39.5938 10.1562 38.8438C9.40625 38.0312 9.03125 37.0938 9.03125 36.0312C9.03125 34.9688 9.40625 34.0312 10.1562 33.2188Z" fill="black" fill-opacity="0.87"/>
</svg>
